<svg xmlns="http://www.w3.org/2000/svg" xmlns:xlink="http://www.w3.org/1999/xlink" viewBox="0 0 1366 755"><defs><style>.cls-1{fill:none;}.cls-2{opacity:0.25;}.cls-3{fill:#f28a13;}.cls-4{fill:url(#orange_spots);}</style><pattern id="orange_spots" data-name="orange_spots" width="195" height="189" patternUnits="userSpaceOnUse" viewBox="0 0 195 189"><rect class="cls-1" width="195" height="189"/><g class="cls-2"><circle class="cls-3" cx="175.5" cy="170.5" r="16"/><circle class="cls-3" cx="136.5" cy="170.5" r="16"/><circle class="cls-3" cx="97.5" cy="170.5" r="16"/><circle class="cls-3" cx="58.5" cy="170.5" r="16"/><circle class="cls-3" cx="19.5" cy="170.5" r="16"/><circle class="cls-3" cx="175.5" cy="132.5" r="16"/><circle class="cls-3" cx="136.5" cy="132.5" r="16"/><circle class="cls-3" cx="97.5" cy="132.5" r="16"/><circle class="cls-3" cx="58.5" cy="132.5" r="16"/><circle class="cls-3" cx="19.5" cy="132.5" r="16"/><circle class="cls-3" cx="175.5" cy="94.5" r="16"/><circle class="cls-3" cx="136.5" cy="94.5" r="16"/><circle class="cls-3" cx="97.5" cy="94.5" r="16"/><circle class="cls-3" cx="58.5" cy="94.5" r="16"/><circle class="cls-3" cx="19.5" cy="94.5" r="16"/><circle class="cls-3" cx="175.5" cy="56.5" r="16"/><circle class="cls-3" cx="136.5" cy="56.5" r="16"/><circle class="cls-3" cx="97.5" cy="56.5" r="16"/><circle class="cls-3" cx="58.5" cy="56.5" r="16"/><circle class="cls-3" cx="19.5" cy="56.5" r="16"/><circle class="cls-3" cx="175.5" cy="18.5" r="16"/><circle class="cls-3" cx="136.5" cy="18.5" r="16"/><circle class="cls-3" cx="97.5" cy="18.5" r="16"/><circle class="cls-3" cx="58.5" cy="18.5" r="16"/><circle class="cls-3" cx="19.5" cy="18.5" r="16"/></g></pattern></defs><g id="Layer_2" data-name="Layer 2"><g id="Layer_1-2" data-name="Layer 1"><rect class="cls-4" width="1366" height="755"/></g></g></svg>