<svg xmlns="http://www.w3.org/2000/svg" xmlns:xlink="http://www.w3.org/1999/xlink" viewBox="0 0 1366 707"><defs><style>.cls-1{fill:none;}.cls-2{opacity:0.1;}.cls-3{fill:#f21d1d;}.cls-4{fill:url(#New_Pattern_5);}</style><pattern id="New_Pattern_5" data-name="New Pattern 5" width="195" height="195" patternTransform="translate(46 -13)" patternUnits="userSpaceOnUse" viewBox="0 0 195 195"><rect class="cls-1" width="195" height="195"/><g class="cls-2"><circle class="cls-3" cx="175.5" cy="175.5" r="16"/><circle class="cls-3" cx="136.5" cy="175.5" r="16"/><circle class="cls-3" cx="97.5" cy="175.5" r="16"/><circle class="cls-3" cx="58.5" cy="175.5" r="16"/><circle class="cls-3" cx="19.5" cy="175.5" r="16"/><circle class="cls-3" cx="175.5" cy="136.5" r="16"/><circle class="cls-3" cx="136.5" cy="136.5" r="16"/><circle class="cls-3" cx="97.5" cy="136.5" r="16"/><circle class="cls-3" cx="58.5" cy="136.5" r="16"/><circle class="cls-3" cx="19.5" cy="136.5" r="16"/><circle class="cls-3" cx="175.5" cy="97.5" r="16"/><circle class="cls-3" cx="136.5" cy="97.5" r="16"/><circle class="cls-3" cx="97.5" cy="97.5" r="16"/><circle class="cls-3" cx="58.5" cy="97.5" r="16"/><circle class="cls-3" cx="19.5" cy="97.5" r="16"/><circle class="cls-3" cx="175.5" cy="58.5" r="16"/><circle class="cls-3" cx="136.5" cy="58.5" r="16"/><circle class="cls-3" cx="97.5" cy="58.5" r="16"/><circle class="cls-3" cx="58.5" cy="58.5" r="16"/><circle class="cls-3" cx="19.5" cy="58.5" r="16"/><circle class="cls-3" cx="175.5" cy="19.5" r="16"/><circle class="cls-3" cx="136.5" cy="19.5" r="16"/><circle class="cls-3" cx="97.5" cy="19.5" r="16"/><circle class="cls-3" cx="58.5" cy="19.5" r="16"/><circle class="cls-3" cx="19.5" cy="19.5" r="16"/></g></pattern></defs><g id="Layer_2" data-name="Layer 2"><g id="Layer_1-2" data-name="Layer 1"><rect class="cls-4" width="1366" height="707"/></g></g></svg>